<?xml version="1.0" encoding="UTF-8"?><svg id="Layer_1" xmlns="http://www.w3.org/2000/svg" viewBox="0 0 728.75 162.54"><defs><style>.cls-1{fill:#303030;}</style></defs><polygon class="cls-1" points="185.73 81.27 170.22 69.17 170.17 69.13 145.08 69.13 145.08 49.8 121.19 31.15 121.19 69.33 96.17 69.33 80.86 81.27 96.17 93.22 121.19 93.22 121.19 131.39 145.08 112.75 145.08 93.42 170.17 93.42 185.73 81.27"/><polygon class="cls-1" points="77.06 124.54 33.79 81.27 83.65 31.41 112.24 54.61 112.24 24.17 103.33 17.22 81.27 0 0 81.27 81.27 162.54 87.44 157.73 112.24 138.38 112.24 107.93 83.65 131.13 77.06 124.54"/><path class="cls-1" d="m205.62,83.41c0-14.34,10.86-24.01,24.78-24.01,11.56,0,17.54,6.34,20.61,12.46l-10.3,4.87c-1.53-3.69-5.5-6.75-10.3-6.75-7.24,0-12.6,5.85-12.6,13.43s5.36,13.44,12.6,13.44c4.81,0,8.77-3.06,10.3-6.75l10.3,4.88c-2.99,5.98-9.05,12.46-20.61,12.46-13.92,0-24.78-9.75-24.78-24.02Z"/><path class="cls-1" d="m278.66,59.39c14.2,0,24.78,9.89,24.78,24.01s-10.58,24.02-24.78,24.02-24.85-9.89-24.85-24.02,10.65-24.01,24.85-24.01Zm0,10.58c-7.72,0-12.67,5.85-12.67,13.43s4.94,13.44,12.67,13.44,12.6-5.92,12.6-13.44-4.94-13.43-12.6-13.43Z"/><path class="cls-1" d="m341.12,106.59l-19.63-28.05v28.05h-11.97v-46.43h12.32l18.8,26.73v-26.73h12.04v46.43h-11.56Z"/><path class="cls-1" d="m392.64,106.59l-19.63-28.05v28.05h-11.97v-46.43h12.32l18.8,26.73v-26.73h12.04v46.43h-11.56Z"/><path class="cls-1" d="m412.56,106.59v-46.43h34.04v10.09h-22.07v7.73h21.58v10.16h-21.58v8.35h22.07v10.1h-34.04Z"/><path class="cls-1" d="m451.21,83.41c0-14.34,10.86-24.01,24.78-24.01,11.56,0,17.54,6.34,20.61,12.46l-10.3,4.87c-1.53-3.69-5.5-6.75-10.3-6.75-7.24,0-12.6,5.85-12.6,13.43s5.36,13.44,12.6,13.44c4.8,0,8.77-3.06,10.3-6.75l10.3,4.88c-3,5.98-9.05,12.46-20.61,12.46-13.92,0-24.78-9.75-24.78-24.02Z"/><path class="cls-1" d="m512.13,106.59v-35.99h-13.02v-10.44h37.94v10.44h-12.95v35.99h-11.97Z"/><path class="cls-1" d="m560.6,106.59v-46.43h23.25c10.44,0,16.15,7.03,16.15,15.45s-5.71,15.25-16.15,15.25h-11.28v15.73h-11.97Zm21.65-36.34h-9.68v10.44h9.68c3.2,0,5.57-2.02,5.57-5.15s-2.37-5.29-5.57-5.29Z"/><path class="cls-1" d="m605.37,106.59v-46.43h11.97v35.99h18.66v10.44h-30.63Z"/><path class="cls-1" d="m640.67,60.16h12.18v27.22c0,5.5,2.92,9.47,9.4,9.47s9.33-3.97,9.33-9.47v-27.22h12.18v27.57c0,11.55-6.62,19.7-21.51,19.7s-21.58-8.21-21.58-19.63v-27.63Z"/><path class="cls-1" d="m695.12,91.07c3.34,3.34,8.49,6.13,14.83,6.13,4.11,0,6.61-1.74,6.61-3.97,0-2.65-2.99-3.69-7.94-4.73-7.66-1.53-18.38-3.48-18.38-14.48,0-7.8,6.62-14.55,18.52-14.55,7.45,0,13.92,2.23,18.87,6.48l-6.54,8.56c-3.9-3.2-8.98-4.8-13.09-4.8s-5.5,1.6-5.5,3.62c0,2.44,2.86,3.27,8.01,4.24,7.66,1.6,18.24,3.83,18.24,14.34,0,9.32-6.89,15.52-19.35,15.52-9.4,0-15.94-2.92-20.61-7.38l6.33-8.98Z"/></svg>