<?xml version="1.0" encoding="UTF-8"?><svg id="Layer_1" xmlns="http://www.w3.org/2000/svg" viewBox="0 0 185.73 162.54"><defs><style>.cls-1{fill:#303030;}</style></defs><polygon class="cls-1" points="185.73 81.27 170.22 69.17 170.17 69.13 145.08 69.13 145.08 49.8 121.19 31.15 121.19 69.33 96.17 69.33 80.86 81.27 96.17 93.22 121.19 93.22 121.19 131.39 145.08 112.75 145.08 93.42 170.17 93.42 185.73 81.27"/><polygon class="cls-1" points="77.06 124.54 33.79 81.27 83.65 31.41 112.24 54.61 112.24 24.17 103.33 17.22 81.27 0 0 81.27 81.27 162.54 87.44 157.73 112.24 138.38 112.24 107.93 83.65 131.13 77.06 124.54"/></svg>